<svg viewBox="0 0 603 689" fill="none" xmlns="http://www.w3.org/2000/svg" class="Hexagon_svg__FD9Ah"><g><path d="M300 61V28L28 186L56 202L300 61Z" class="Hexagon_interactiveRing__RAWtc"></path><path d="M300 61V28L572 186L544 202L300 61Z" class="Hexagon_interactiveRing__RAWtc"></path><path d="M572 501V186L544 202V485L572 501Z" class="Hexagon_interactiveRing__RAWtc"></path><path d="M300 626V659L572 501L544 485L300 626Z" class="Hexagon_interactiveRing__RAWtc"></path><path d="M300 626V659L28 501L56 485L300 626Z" class="Hexagon_interactiveRing__RAWtc"></path><path d="M28 501V186L56 202V485L28 501Z" class="Hexagon_interactiveRing__RAWtc Hexagon_interactiveRingActive__43EMr"></path></g><g class="Hexagon_fadeOut__d3H_J"><path d="M28 501V186L56 202V485L28 501Z" fill="url(#paint0_linear_606_51)"></path><path d="M300 626V659L28 501L56 485L300 626Z" fill="url(#paint1_linear_606_51)"></path><path d="M300 61V28L28 186L56 202L300 61Z" fill="url(#paint2_linear_606_51)"></path><path d="M572 501V186L544 202V485L572 501Z" fill="url(#paint3_linear_606_51)"></path><path d="M300 626V659L572 501L544 485L300 626Z" fill="url(#paint4_linear_606_51)"></path><path d="M300 61V28L572 186L544 202L300 61Z" fill="url(#paint5_linear_606_51)"></path></g><g style="opacity:0"><path fill-rule="evenodd" clip-rule="evenodd" d="M588.25 171.366L300.25 4.86573L300.751 4L588.75 170.5L588.25 171.366Z" fill="#C4C4C4"></path><path fill-rule="evenodd" clip-rule="evenodd" d="M300.75 340.366L588.75 173.866L588.25 173L300.25 339.5L300.75 340.366Z" fill="#C4C4C4"></path><path fill-rule="evenodd" clip-rule="evenodd" d="M300.75 680.366L588.75 513.866L588.25 513L300.25 679.5L300.75 680.366Z" fill="#C4C4C4"></path><path fill-rule="evenodd" clip-rule="evenodd" d="M10.75 171.366L298.75 4.86573L298.249 4L10.2495 170.5L10.75 171.366Z" fill="#C4C4C4"></path><path fill-rule="evenodd" clip-rule="evenodd" d="M298.25 340.366L10.25 173.866L10.7505 173L298.75 339.5L298.25 340.366Z" fill="#C4C4C4"></path><path fill-rule="evenodd" clip-rule="evenodd" d="M298.25 680.366L10.25 513.866L10.7505 513L298.75 679.5L298.25 680.366Z" fill="#C4C4C4"></path><path fill-rule="evenodd" clip-rule="evenodd" d="M591 510.433V173.433H592V510.433H591Z" fill="#C4C4C4"></path><path fill-rule="evenodd" clip-rule="evenodd" d="M8 510.433V173.433H9V510.433H8Z" fill="#C4C4C4"></path></g><path fill-rule="evenodd" clip-rule="evenodd" d="M113.252 241.999L300.252 134.999L300.749 135.867L113.749 242.867L113.252 241.999Z" fill="#EFF0ED"></path><path fill-rule="evenodd" clip-rule="evenodd" d="M486.748 241.999L299.748 134.999L299.251 135.867L486.251 242.867L486.748 241.999Z" fill="#EFF0ED"></path><path fill-rule="evenodd" clip-rule="evenodd" d="M113.252 453.866L300.252 560.866L300.749 559.998L113.749 452.998L113.252 453.866Z" fill="#EFF0ED"></path><path fill-rule="evenodd" clip-rule="evenodd" d="M486.748 453.866L299.748 560.866L299.251 559.998L486.251 452.998L486.748 453.866Z" fill="#EFF0ED"></path><path fill-rule="evenodd" clip-rule="evenodd" d="M486 453.433V242.433H487V453.433H486Z" fill="#EFF0ED"></path><path fill-rule="evenodd" clip-rule="evenodd" d="M113 453.433V242.433H114V453.433H113Z" fill="#EFF0ED"></path><g style="opacity:0"><path fill-rule="evenodd" clip-rule="evenodd" d="M452.252 268.867L300.252 181.867L300.749 180.999L452.749 267.999L452.252 268.867Z" fill="#C4C4C4"></path><path fill-rule="evenodd" clip-rule="evenodd" d="M452 489.933V267.933H453V489.933H452Z" fill="#C4C4C4"></path><path fill-rule="evenodd" clip-rule="evenodd" d="M206.246 321.002L333.246 246.002L333.755 246.863L206.755 321.863L206.246 321.002Z" fill="#EFF0ED"></path><path fill-rule="evenodd" clip-rule="evenodd" d="M206 622.433V321.433H207V622.433H206Z" fill="#EFF0ED"></path><path fill-rule="evenodd" clip-rule="evenodd" d="M322.249 580L591.249 424L591.751 424.865L322.751 580.865L322.249 580Z" fill="#C4C4C4"></path><path fill-rule="evenodd" clip-rule="evenodd" d="M322.25 480.999L591.25 325.999L591.75 326.865L322.75 481.865L322.25 480.999Z" fill="#C4C4C4"></path><path fill-rule="evenodd" clip-rule="evenodd" d="M322 580.433V481.433H323V580.433H322Z" fill="#C4C4C4"></path></g><g style="opacity:0"><path d="M293 12.4151C293 15.0705 295.153 17.2231 297.808 17.2231H310.223V4.80801C310.223 2.15257 308.071 -8.39233e-05 305.415 -8.39233e-05H293V12.4151Z" fill="white"></path><path fill-rule="evenodd" clip-rule="evenodd" d="M308.931 15.9314H297.808C295.866 15.9314 294.292 14.3571 294.292 12.4151V1.29166H305.415C307.357 1.29166 308.931 2.86598 308.931 4.80801V15.9314ZM297.808 17.2231C295.153 17.2231 293 15.0705 293 12.4151V-8.39233e-05H305.415C308.071 -8.39233e-05 310.223 2.15257 310.223 4.80801V17.2231H297.808Z" fill="#C4C4C4"></path><path d="M293 339.415C293 342.07 295.153 344.223 297.808 344.223H310.223V331.808C310.223 329.153 308.071 327 305.415 327H293V339.415Z" fill="white"></path><path fill-rule="evenodd" clip-rule="evenodd" d="M308.931 342.931H297.808C295.866 342.931 294.292 341.357 294.292 339.415V328.292H305.415C307.357 328.292 308.931 329.866 308.931 331.808V342.931ZM297.808 344.223C295.153 344.223 293 342.07 293 339.415V327H305.415C308.071 327 310.223 329.153 310.223 331.808V344.223H297.808Z" fill="#C4C4C4"></path><path d="M293 683.415C293 686.07 295.153 688.223 297.808 688.223H310.223V675.808C310.223 673.153 308.071 671 305.415 671H293V683.415Z" fill="white"></path><path fill-rule="evenodd" clip-rule="evenodd" d="M308.931 686.931H297.808C295.866 686.931 294.292 685.357 294.292 683.415V672.292H305.415C307.357 672.292 308.931 673.866 308.931 675.808V686.931ZM297.808 688.223C295.153 688.223 293 686.07 293 683.415V671H305.415C308.071 671 310.223 673.153 310.223 675.808V688.223H297.808Z" fill="#C4C4C4"></path><path d="M0 177.415C0 180.07 2.15266 182.223 4.80809 182.223H17.2232V169.808C17.2232 167.153 15.0706 165 12.4151 165H0V177.415Z" fill="white"></path><path fill-rule="evenodd" clip-rule="evenodd" d="M15.9315 180.931H4.80809C2.86607 180.931 1.29174 179.357 1.29174 177.415V166.292H12.4151C14.3572 166.292 15.9315 167.866 15.9315 169.808V180.931ZM4.80809 182.223C2.15266 182.223 0 180.07 0 177.415V165H12.4151C15.0706 165 17.2232 167.153 17.2232 169.808V182.223H4.80809Z" fill="#C4C4C4"></path><path d="M0 515.415C0 518.07 2.15266 520.223 4.80809 520.223H17.2232V507.808C17.2232 505.153 15.0706 503 12.4151 503H0V515.415Z" fill="white"></path><path fill-rule="evenodd" clip-rule="evenodd" d="M15.9315 518.931H4.80809C2.86607 518.931 1.29174 517.357 1.29174 515.415V504.292H12.4151C14.3572 504.292 15.9315 505.866 15.9315 507.808V518.931ZM4.80809 520.223C2.15266 520.223 0 518.07 0 515.415V503H12.4151C15.0706 503 17.2232 505.153 17.2232 507.808V520.223H4.80809Z" fill="#C4C4C4"></path><path d="M585 177.415C585 180.07 587.153 182.223 589.808 182.223H602.223V169.808C602.223 167.153 600.071 165 597.415 165H585V177.415Z" fill="white"></path><path fill-rule="evenodd" clip-rule="evenodd" d="M600.931 180.931H589.808C587.866 180.931 586.292 179.357 586.292 177.415V166.292H597.415C599.357 166.292 600.931 167.866 600.931 169.808V180.931ZM589.808 182.223C587.153 182.223 585 180.07 585 177.415V165H597.415C600.071 165 602.223 167.153 602.223 169.808V182.223H589.808Z" fill="#C4C4C4"></path><path d="M585 517.415C585 520.07 587.153 522.223 589.808 522.223H602.223V509.808C602.223 507.153 600.071 505 597.415 505H585V517.415Z" fill="white"></path><path fill-rule="evenodd" clip-rule="evenodd" d="M600.931 520.931H589.808C587.866 520.931 586.292 519.357 586.292 517.415V506.292H597.415C599.357 506.292 600.931 507.866 600.931 509.808V520.931ZM589.808 522.223C587.153 522.223 585 520.07 585 517.415V505H597.415C600.071 505 602.223 507.153 602.223 509.808V522.223H589.808Z" fill="#C4C4C4"></path></g><g><g class="Hexagon_textLink__wvdJ2"><text x="302" y="216" class="Hexagon_textLabel__Xs37h" text-anchor="middle">The Goodwin Platform</text></g><g class="Hexagon_textLink__wvdJ2"><text x="302" y="263" class="Hexagon_textLabel__Xs37h" text-anchor="middle">Healthcare</text></g><g class="Hexagon_textLink__wvdJ2"><text x="302" y="310" class="Hexagon_textLabel__Xs37h" text-anchor="middle">Investment Funds</text></g><g class="Hexagon_textLink__wvdJ2"><text x="302" y="357" class="Hexagon_textLabel__Xs37h" text-anchor="middle">Life Sciences</text></g><g class="Hexagon_textLink__wvdJ2"><text x="302" y="404" class="Hexagon_textLabel__Xs37h" text-anchor="middle">Private Equity</text></g><g class="Hexagon_textLink__wvdJ2"><text x="302" y="451" class="Hexagon_textLabel__Xs37h" text-anchor="middle">Real Estate</text></g><g class="Hexagon_textLink__wvdJ2 Hexagon_textLinkActive__xHF28"><text x="302" y="498" class="Hexagon_textLabel__Xs37h" text-anchor="middle">Technology</text></g></g><defs><linearGradient id="paint0_linear_606_51" x1="42" y1="186" x2="42" y2="501" gradientUnits="userSpaceOnUse"><stop stop-color="#F3C66D"></stop><stop offset="1" stop-color="#F6AD45"></stop></linearGradient><linearGradient id="paint1_linear_606_51" x1="300" y1="643" x2="45.5" y2="492" gradientUnits="userSpaceOnUse"><stop stop-color="#F8951E"></stop><stop offset="1" stop-color="#F5AD45"></stop></linearGradient><linearGradient id="paint2_linear_606_51" x1="300" y1="43" x2="44" y2="195" gradientUnits="userSpaceOnUse"><stop stop-color="#B7D0B9"></stop><stop offset="1" stop-color="#F4C56C"></stop></linearGradient><linearGradient id="paint3_linear_606_51" x1="558" y1="186" x2="558" y2="501" gradientUnits="userSpaceOnUse"><stop stop-color="#98D5EA"></stop><stop offset="1" stop-color="#C3E3EF"></stop></linearGradient><linearGradient id="paint4_linear_606_51" x1="300" y1="644.5" x2="556.5" y2="493.5" gradientUnits="userSpaceOnUse"><stop stop-color="#F1F2F2"></stop><stop offset="1" stop-color="#C2E3EF"></stop></linearGradient><linearGradient id="paint5_linear_606_51" x1="300" y1="28" x2="572" y2="187" gradientUnits="userSpaceOnUse"><stop stop-color="#B7CFB7"></stop><stop offset="1" stop-color="#96D5EC"></stop></linearGradient></defs></svg>