<?xml version="1.0" encoding="utf-8"?>
<!-- Generator: Adobe Illustrator 24.0.2, SVG Export Plug-In . SVG Version: 6.00 Build 0)  -->
<svg version="1.1" id="Layer_1" xmlns="http://www.w3.org/2000/svg" xmlns:xlink="http://www.w3.org/1999/xlink" x="0px" y="0px"
	 viewBox="0 0 80 80" style="enable-background:new 0 0 80 80;" xml:space="preserve">
<style type="text/css">
	.st0{fill-rule:evenodd;clip-rule:evenodd;fill:#F7941D;}
</style>
<g>
	<g>
		<path class="st0" d="M36,5c-0.6,0-1,0.4-1,1v7v55c0,3.9,3.1,7,7,7h14c0.6,0,1-0.4,1-1V64v-6V6c0-0.6-0.4-1-1-1H36z M55,57V7H37v5
			h15c0.6,0,1,0.4,1,1s-0.4,1-1,1H37v54c0,2.8,2.2,5,5,5h13v-8H40c-0.6,0-1-0.4-1-1s0.4-1,1-1h15v-4H40c-0.6,0-1-0.4-1-1s0.4-1,1-1
			H55z M60,17c-0.6,0-1,0.4-1,1v7v4v45c0,0.6,0.4,1,1,1h19c0.6,0,1-0.4,1-1v-8V24c0-3.9-3.1-7-7-7H60z M78,65H64c-0.6,0-1,0.4-1,1
			s0.4,1,1,1h14v6H61V30h14c0.6,0,1-0.4,1-1s-0.4-1-1-1H61v-2h14c0.6,0,1-0.4,1-1s-0.4-1-1-1H61v-5h12c2.8,0,5,2.2,5,5V65z
			 M16.5,10.9c1-3.7,4.8-6,8.6-4.9L32.8,8c0.5,0.1,0.8,0.7,0.7,1.2L15.9,74.9c-0.1,0.5-0.7,0.9-1.2,0.7L1.2,72
			c-0.5-0.1-0.9-0.7-0.7-1.2l13.5-50.2l1-3.9L16.5,10.9z M17.2,16.2l1.3-4.8c0.7-2.7,3.5-4.3,6.1-3.5l6.8,1.8l-9.1,34L13,41.2
			c-0.5-0.1-1.1,0.2-1.2,0.7c-0.1,0.5,0.2,1.1,0.7,1.2l9.3,2.5l-7.5,27.9L2.7,70.3L15.6,22l8.7,2.3c0.5,0.1,1.1-0.2,1.2-0.7
			c0.1-0.5-0.2-1.1-0.7-1.2l-8.7-2.3l0.5-1.9l8.7,2.3c0.5,0.1,1.1-0.2,1.2-0.7c0.1-0.5-0.2-1.1-0.7-1.2L17.2,16.2z M46,20
			c-2.2,0-4,1.8-4,4s1.8,4,4,4c2.2,0,4-1.8,4-4S48.2,20,46,20z M40,24c0-3.3,2.7-6,6-6c3.3,0,6,2.7,6,6s-2.7,6-6,6
			C42.7,30,40,27.3,40,24z"/>
	</g>
</g>
</svg>
