<?xml version="1.0" encoding="utf-8"?>
<!-- Generator: Adobe Illustrator 24.0.2, SVG Export Plug-In . SVG Version: 6.00 Build 0)  -->
<svg version="1.1" id="Layer_1" xmlns="http://www.w3.org/2000/svg" xmlns:xlink="http://www.w3.org/1999/xlink" x="0px" y="0px"
	 viewBox="0 0 80 80" style="enable-background:new 0 0 80 80;" xml:space="preserve">
<style type="text/css">
	.st0{fill-rule:evenodd;clip-rule:evenodd;fill:#F7941D;}
</style>
<path class="st0" d="M49.7,1.7c0.3,0,0.5,0.1,0.7,0.3l2.8,2.8l2.8-2.8c0.4-0.4,1-0.4,1.4,0l2.8,2.8c0.4,0.4,0.4,1,0,1.4L57.5,9
	l2.8,2.8c0.4,0.4,0.4,1,0,1.4l-4.6,4.6l-1,1c-0.4,0.4-1,0.4-1.4,0c-0.4-0.4-0.4-1,0-1.4l1-1l3.9-3.9l-2.8-2.8l-2.8-2.8l-2.8-2.8
	L27.3,26.5l8.5,8.5l4.6-4.6c0.4-0.4,1-0.4,1.4,0c0.4,0.4,0.4,1,0,1.4l-4.6,4.6l1.4,1.4c0.4,0.4,0.4,1,0,1.4s-1,0.4-1.4,0l-2.1-2.1
	l-9.9-9.9L23.1,25c-0.4-0.4-0.4-1,0-1.4c0.4-0.4,1-0.4,1.4,0l1.4,1.4L49,1.9C49.2,1.8,49.4,1.7,49.7,1.7z M56.1,7.6l-1.4-1.4
	l2.1-2.1l1.4,1.4L56.1,7.6z M45,26c0-2.2,1.8-4,4-4s4,1.8,4,4s-1.8,4-4,4S45,28.2,45,26z M49,20c-3.3,0-6,2.7-6,6s2.7,6,6,6
	s6-2.7,6-6S52.3,20,49,20z M32,57h-5.4c1.4,1.6,3,2.9,4.9,3.9c0.5,0.3,0.7,0.9,0.4,1.4c-0.3,0.5-0.9,0.7-1.4,0.4
	C28,61.2,25.7,59.3,24,57h-3.6c2.6,4.2,6.4,7.5,11,9.3c0.5,0.2,0.8,0.8,0.6,1.3c-0.2,0.5-0.8,0.8-1.3,0.6C25.3,66,20.8,62,18.1,57
	H10c-0.6,0-1-0.4-1-1v-5c0-0.6,0.4-1,1-1h18c2.8,0,5,2.2,5,5v1C33,56.6,32.6,57,32,57z M24.4,55c0.1,0,0.2,0,0.3,0H31
	c0-1.7-1.3-3-3-3H11v3h7.6l0,0l0,0H24.4z M40,62c-2.2,0-4,1.8-4,4s1.8,4,4,4s4-1.8,4-4S42.2,62,40,62z M44.5,70c1-1.1,1.5-2.5,1.5-4
	c0-3.3-2.7-6-6-6s-6,2.7-6,6c0,1.5,0.6,2.9,1.5,4H26c-0.4,0-0.8,0.3-0.9,0.6l-3,8c-0.1,0.3-0.1,0.7,0.1,0.9S22.7,80,23,80h34
	c0.3,0,0.6-0.2,0.8-0.4c0.2-0.3,0.2-0.6,0.1-0.9l-1.5-4.1c-1-2.7-3.6-4.5-6.6-4.5H44.5z M40,72H26.7l-2.3,6h31.1l-1-2.8
	c-0.7-2-2.6-3.2-4.7-3.2H40z M57.3,28.4c0.4-0.4,1-0.3,1.4,0.1C62.6,32.9,65,38.7,65,45c0,10.5-6.5,19.5-15.6,23.2
	c-0.5,0.2-1.1,0-1.3-0.6c-0.2-0.5,0-1.1,0.6-1.3C57.1,62.9,63,54.7,63,45c0-5.8-2.2-11.2-5.7-15.2C56.9,29.4,56.9,28.7,57.3,28.4z
	 M55.3,32.1c-0.4-0.4-1-0.5-1.4-0.1c-0.4,0.4-0.5,1-0.1,1.4C56.4,36.5,58,40.6,58,45c0,7.2-4.3,13.5-10.4,16.3
	c-0.5,0.2-0.7,0.8-0.5,1.3c0.2,0.5,0.8,0.7,1.3,0.5C55.3,60,60,53,60,45C60,40.1,58.2,35.6,55.3,32.1z M25.9,32.1
	c0.4,0.4,0.4,1,0,1.4l-3.5,3.5l2.8,2.8l3.5-3.5c0.4-0.4,1-0.4,1.4,0c0.4,0.4,0.4,1,0,1.4L25.9,42c-0.4,0.4-1,0.4-1.4,0l-4.2-4.2
	c-0.4-0.4-0.4-1,0-1.4l4.2-4.2C24.9,31.7,25.5,31.7,25.9,32.1z"/>
</svg>
