<?xml version="1.0" encoding="utf-8"?>
<!-- Generator: Adobe Illustrator 24.0.2, SVG Export Plug-In . SVG Version: 6.00 Build 0)  -->
<svg version="1.1" id="Layer_1" xmlns="http://www.w3.org/2000/svg" xmlns:xlink="http://www.w3.org/1999/xlink" x="0px" y="0px"
	 viewBox="0 0 80 80" style="enable-background:new 0 0 80 80;" xml:space="preserve">
<style type="text/css">
	.st0{fill:#F7941D;}
</style>
<g>
	<path class="st0" d="M35.1,7.1v53.3c0,0.6,0.5,1,1,1c0.6,0,1-0.5,1-1V7.1h5.7v53.3c0,0.6,0.5,1,1,1s1-0.5,1-1V7.1
		c1.6,0,2.9-1.3,2.9-3c0-1.6-1.3-3-3-3h-9.7c-1.6,0-3,1.3-3,3C32.2,5.7,33.5,7,35.1,7.1z M34.2,4.1c0-0.5,0.4-0.9,0.9-0.9h9.7
		c0.5,0,0.9,0.4,0.9,0.9c0,0.5-0.4,0.9-0.9,0.9h-9.7C34.6,5,34.2,4.6,34.2,4.1z"/>
	<path class="st0" d="M48.5,16.2l21.4,5.3c0.1,0,0.2,0,0.2,0c0.5,0,0.9-0.3,1-0.8c0.1-0.5-0.2-1.1-0.7-1.2L49,14.3
		c-0.3-0.1-0.5,0-0.8,0.1c-0.2,0.1-0.4,0.4-0.5,0.6C47.6,15.6,47.9,16.1,48.5,16.2z"/>
	<path class="st0" d="M63.3,70h-2c-0.5-2.8-2.9-4.9-5.8-4.9H19.6c-0.6,0-1,0.5-1,1V70h-7.7c-0.6,0-1,0.5-1,1v1
		c0,3.8,3.1,6.8,6.8,6.8h52.4c0.6,0,1-0.5,1-1v-1C70.1,73.1,67.1,70,63.3,70z M20.6,70v-2.8h34.9c1.7,0,3.2,1.2,3.7,2.8H20.6z
		 M68.1,76.8H16.7c-2.6,0-4.8-2.1-4.8-4.8h51.4C65.9,72.1,68.1,74.2,68.1,76.8z"/>
	<path class="st0" d="M9.7,7l20.4,4.9c0.1,0,0.2,0,0.2,0c0.5,0,0.9-0.3,1-0.8c0.1-0.3,0-0.5-0.1-0.8c-0.1-0.2-0.4-0.4-0.6-0.5
		L10.2,5C9.6,4.9,9.1,5.2,8.9,5.8C8.8,6.3,9.1,6.9,9.7,7z"/>
	<path class="st0" d="M74.9,49.3L64.7,24.1c-0.2-0.4-0.5-0.6-0.9-0.6c0,0,0,0,0,0c-0.4,0-0.8,0.3-0.9,0.7l-9.2,25.2
		c0,0.1-0.1,0.2-0.1,0.4c0,2.9,1.1,5.6,3.1,7.6c2,2,4.7,3.1,7.6,3.1s5.6-1.1,7.6-3.1c2-2,3.1-4.7,3.1-7.6C75,49.6,75,49.4,74.9,49.3
		z M56,48.7l7.8-21.4l8.6,21.4H56z M72.9,50.7c-0.2,1.9-1.1,3.7-2.5,5.1c-1.6,1.6-3.8,2.5-6.1,2.5c-2.3,0-4.5-0.9-6.1-2.5
		c-1.4-1.4-2.3-3.2-2.5-5.1H72.9z"/>
	<path class="st0" d="M23.3,45.6c2-2,3.1-4.7,3.1-7.6c0-0.1,0-0.3-0.1-0.4L16.2,12.4c-0.2-0.4-0.5-0.6-0.9-0.6c0,0,0,0,0,0
		c-0.4,0-0.8,0.3-0.9,0.7L5.1,37.7C5,37.8,5,37.9,5,38.1c0,2.9,1.1,5.6,3.1,7.6c2,2,4.7,3.1,7.6,3.1C18.6,48.8,21.3,47.7,23.3,45.6z
		 M7.5,37l7.8-21.4L23.9,37H7.5z M24.4,39.1c-0.2,1.9-1.1,3.7-2.5,5.1c-1.6,1.6-3.8,2.5-6.1,2.5c-2.3,0-4.5-0.9-6.1-2.5
		c-1.4-1.4-2.3-3.2-2.5-5.1H24.4z"/>
</g>
</svg>
